<svg width="0" height="0" class="hidden">
  <symbol fill="none" xmlns="http://www.w3.org/2000/svg" xmlns:xlink="http://www.w3.org/1999/xlink" viewBox="0 0 13 13" id="facebook">
    <defs>
      <clipPath id="clip64_72">
        <rect id="facebook" width="13.000000" height="13.000000" fill="white" fill-opacity="0"></rect>
      </clipPath>
    </defs>
    <rect id="facebook" width="13.000000" height="13.000000" fill="#FFFFFF" fill-opacity="0"></rect>
    <g clip-path="url(#clip64_72)">
      <path id="Vector" d="M11.4766 0L1.52344 0C0.683594 0 0 0.683594 0 1.52344L0 11.4766C0 12.3164 0.683594 13 1.52344 13L11.4766 13C12.3164 13 13 12.3164 13 11.4766L13 1.52344C13 0.683594 12.3164 0 11.4766 0ZM11.9844 11.4766C11.9844 11.7563 11.7559 11.9844 11.4766 11.9844L8.58203 11.9844L8.58203 7.8457L10.1504 7.8457L10.4102 6.27148L8.58203 6.27148L8.58203 5.17969C8.58203 4.74854 8.91211 4.41797 9.34375 4.41797L10.3848 4.41797L10.3848 2.84375L9.34375 2.84375C8.05078 2.84375 7.00781 3.89111 7.00781 5.18408L7.00781 6.27148L5.48438 6.27148L5.48438 7.8457L7.00781 7.8457L7.00781 11.9844L1.52344 11.9844C1.24414 11.9844 1.01562 11.7563 1.01562 11.4766L1.01562 1.52344C1.01562 1.24365 1.24414 1.01562 1.52344 1.01562L11.4766 1.01562C11.7559 1.01562 11.9844 1.24365 11.9844 1.52344L11.9844 11.4766Z" fill="#FFFFFF" fill-opacity="1.000000" fill-rule="nonzero"></path>
    </g>
  </symbol>
  <symbol fill="none" xmlns="http://www.w3.org/2000/svg" xmlns:xlink="http://www.w3.org/1999/xlink" viewBox="0 0 13 13" id="twitter">
    <defs>
      <clipPath id="clip64_66">
        <rect id="twitter" width="13.000000" height="13.000000" fill="white" fill-opacity="0"></rect>
      </clipPath>
    </defs>
    <rect id="twitter" width="13.000000" height="13.000000" fill="#FFFFFF" fill-opacity="0"></rect>
    <g clip-path="url(#clip64_66)">
      <path id="Vector" d="M9.56641 0L3.43359 0C1.50781 0 0 1.50781 0 3.43311L0 9.56689C0 11.4922 1.50781 13 3.43359 13L9.56641 13C11.4922 13 13 11.4922 13 9.56689L13 3.43311C13 1.50781 11.4922 0 9.56641 0ZM12.1621 9.56689C12.1621 11.022 11.0215 12.1611 9.56641 12.1611L3.43359 12.1611C1.97852 12.1611 0.837891 11.0215 0.837891 9.56689L0.837891 3.43311C0.837891 1.97852 1.97852 0.838867 3.43359 0.838867L9.56641 0.838867C11.0215 0.838867 12.1621 1.97852 12.1621 3.43311L12.1621 9.56689Z" fill="#FFFFFF" fill-opacity="1.000000" fill-rule="nonzero"></path>
      <path id="Vector" d="M10.5898 3.31885C10.4551 3.2207 10.2754 3.21191 10.1309 3.2959C9.98828 3.38037 9.66992 3.42188 9.41406 3.45508C9.36133 3.4624 9.31055 3.46924 9.25977 3.47607C8.90234 3.18018 8.44727 3.01416 7.97656 3.01416C6.91797 3.01416 6.04883 3.8335 5.98828 4.86426C5.02734 4.70264 4.14844 4.20166 3.52539 3.44922C3.43164 3.33691 3.28906 3.28223 3.14258 3.30078C2.99805 3.32129 2.875 3.41455 2.81641 3.54785C2.79102 3.60938 2.55664 4.18506 2.55664 5.60889C2.55664 6.84229 3.5293 7.74854 4.19727 8.22559C3.74023 8.43311 3.21484 8.50928 2.71484 8.4541C2.51953 8.43311 2.33594 8.54785 2.27148 8.73193C2.20703 8.9165 2.2793 9.12109 2.44336 9.22559C3.23242 9.72314 4.14258 9.98584 5.08008 9.98584C8.08594 9.98584 9.9043 7.62451 9.97266 5.29639C10.0586 5.1709 10.2227 4.92676 10.502 4.49854C10.6133 4.32617 10.707 3.95459 10.752 3.74902C10.7891 3.58594 10.7246 3.41699 10.5898 3.31885ZM9.21484 4.91504C9.16406 4.98633 9.13477 5.07275 9.13477 5.16064C9.13477 6.81592 7.87695 9.14746 5.08008 9.14746C4.82617 9.14746 4.57617 9.12402 4.33008 9.0791C4.6582 8.95459 4.96875 8.78174 5.25195 8.56201C5.36719 8.47461 5.42773 8.3335 5.41406 8.19092C5.40039 8.04785 5.31445 7.9209 5.18555 7.85596C5.16797 7.84668 3.39648 6.91455 3.39648 5.60938C3.39648 5.17236 3.41992 4.82812 3.44922 4.56641C4.27344 5.27539 5.32031 5.69922 6.42383 5.75391C6.43164 5.75439 6.44141 5.75488 6.44922 5.75439C6.69336 5.74707 6.87109 5.56787 6.87109 5.33496C6.87109 5.27686 6.85938 5.22217 6.83789 5.17188C6.82812 5.10889 6.82227 5.04541 6.82227 4.98242C6.82227 4.35938 7.33984 3.85303 7.97656 3.85303C8.29688 3.85303 8.60352 3.98389 8.82031 4.21143C8.91992 4.31445 9.06445 4.36133 9.20312 4.33398C9.29883 4.31592 9.4082 4.30176 9.52344 4.28662C9.56641 4.28125 9.60742 4.27539 9.64844 4.26953C9.33398 4.74951 9.2207 4.90771 9.21484 4.91504Z" fill="#FFFFFF" fill-opacity="1.000000" fill-rule="nonzero"></path>
    </g>
  </symbol>
  <symbol fill="none" xmlns="http://www.w3.org/2000/svg" xmlns:xlink="http://www.w3.org/1999/xlink" viewBox="0 0 19.0117 14.0059" id="checkMark">
    <defs></defs>
    <path id="Vector" d="M17.5059 1.5061L6.50586 12.5061L1.50586 7.5061" stroke="#FFFFFF" stroke-opacity="1.000000" stroke-width="3.000000" stroke-linejoin="round" stroke-linecap="round"></path>
  </symbol>
  <symbol fill="none" xmlns="http://www.w3.org/2000/svg" xmlns:xlink="http://www.w3.org/1999/xlink" viewBox="0 0 16 17" id="youtube">
    <defs>
      <clipPath id="clip64_62">
        <rect id="youtube" width="16.000000" height="17.000000" fill="white" fill-opacity="0"></rect>
      </clipPath>
    </defs>
    <rect id="youtube" width="16.000000" height="17.000000" fill="#FFFFFF" fill-opacity="0"></rect>
    <g clip-path="url(#clip64_62)">
      <path id="Vector" d="M10.5918 8.07764L6.8418 5.5874C6.69727 5.4917 6.51562 5.48633 6.36719 5.57422C6.2168 5.66211 6.125 5.82861 6.125 6.00977L6.125 10.9902C6.125 11.1714 6.2168 11.3379 6.36719 11.4258C6.4375 11.4678 6.51562 11.4883 6.59375 11.4883C6.67969 11.4883 6.76562 11.4629 6.8418 11.4126L10.5918 8.92236C10.7285 8.83154 10.8125 8.67188 10.8125 8.5C10.8125 8.32812 10.7285 8.16846 10.5918 8.07764ZM7.0625 10.0918L7.0625 6.9082L9.45898 8.5L7.0625 10.0918Z" fill="#FFFFFF" fill-opacity="1.000000" fill-rule="nonzero"></path>
      <path id="Vector" d="M13.6562 2.02539L2.34375 2.02539C1.05078 2.02539 0 3.14258 0 4.51562L0 12.4844C0 13.8574 1.05078 14.9746 2.34375 14.9746L13.6562 14.9746C14.9492 14.9746 16 13.8574 16 12.4844L16 4.51562C16 3.14258 14.9492 2.02539 13.6562 2.02539ZM15.0625 12.4844C15.0625 13.3081 14.4316 13.9785 13.6562 13.9785L2.34375 13.9785C1.56836 13.9785 0.9375 13.3081 0.9375 12.4844L0.9375 4.51562C0.9375 3.69189 1.56836 3.02148 2.34375 3.02148L13.6562 3.02148C14.4316 3.02148 15.0625 3.69189 15.0625 4.51562L15.0625 12.4844Z" fill="#FFFFFF" fill-opacity="1.000000" fill-rule="nonzero"></path>
    </g>
  </symbol>
  <symbol fill="none" xmlns="http://www.w3.org/2000/svg" xmlns:xlink="http://www.w3.org/1999/xlink" viewBox="0 0 26.0879 30.1226" id="play">
    <defs></defs>
    <path id="Polygon 1" d="M26.0879 15.061L0 0L0 30.1226L26.0879 15.061Z" fill="#51C815" fill-opacity="1.000000" fill-rule="evenodd"></path>
  </symbol>
  <symbol fill="none" xmlns="http://www.w3.org/2000/svg" xmlns:xlink="http://www.w3.org/1999/xlink" viewBox="0 0 13 13" id="instagram">
    <defs>
      <clipPath id="clip64_76">
        <rect id="instagram" width="13.000000" height="13.000000" transform="matrix(1 0 0 -1 0 13)" fill="white" fill-opacity="0"></rect>
      </clipPath>
    </defs>
    <rect id="instagram" width="13.000000" height="13.000000" transform="matrix(1 0 0 -1 0 13)" fill="#FFFFFF" fill-opacity="0"></rect>
    <g clip-path="url(#clip64_76)">
      <path id="Vector" d="M12.9883 9.17773C12.957 9.86865 12.8457 10.3438 12.6855 10.7549C12.5215 11.1919 12.2676 11.583 11.9336 11.9082C11.6094 12.2383 11.2148 12.4946 10.7832 12.6572C10.3691 12.8174 9.89648 12.9287 9.20703 12.9595C8.50977 12.9922 8.28906 13 6.52539 13C4.75977 13 4.53906 12.9922 3.8457 12.9619C3.1543 12.9316 2.67969 12.8198 2.26758 12.6597C1.83203 12.4946 1.44141 12.2407 1.11523 11.9082C0.785156 11.583 0.529297 11.1895 0.367188 10.7573C0.207031 10.3438 0.09375 9.87109 0.0644531 9.18066C0.03125 8.48486 0.0234375 8.26367 0.0234375 6.49854C0.0234375 4.73389 0.03125 4.5127 0.0625 3.81934C0.0917969 3.12891 0.203125 2.65381 0.363281 2.24219C0.529297 1.80566 0.785156 1.41455 1.11523 1.08936C1.44141 0.759277 1.83398 0.50293 2.26562 0.340332C2.67969 0.180176 3.15234 0.0683594 3.84375 0.0380859C4.53711 0.0078125 4.75781 0 6.52148 0C8.28711 0 8.50781 0.0078125 9.20117 0.0380859C9.89258 0.0683594 10.3672 0.180176 10.7793 0.340332C11.6523 0.678223 12.3438 1.36865 12.6797 2.24219C12.8398 2.65625 12.9531 3.12891 12.9824 3.81934C13.0137 4.5127 13.0215 4.73389 13.0215 6.49854C13.0215 8.26367 13.0176 8.48486 12.9883 9.17773ZM11.8164 3.87012C11.7891 3.23535 11.6816 2.89258 11.5938 2.66406C11.375 2.09766 10.9258 1.64795 10.3594 1.42969C10.1309 1.34082 9.78516 1.23438 9.15234 1.20654C8.4668 1.17578 8.26172 1.16846 6.52734 1.16846C4.79297 1.16846 4.58398 1.17578 3.90039 1.20654C3.26562 1.23438 2.92383 1.34082 2.69531 1.42969C2.41406 1.53369 2.15625 1.69873 1.94922 1.91504C1.73242 2.12549 1.56836 2.37939 1.46289 2.66162C1.375 2.89014 1.26758 3.23535 1.24023 3.86768C1.20898 4.55322 1.20117 4.75928 1.20117 6.49365C1.20117 8.22803 1.20898 8.43652 1.24023 9.11963C1.26758 9.75439 1.375 10.0972 1.46289 10.3257C1.56836 10.6079 1.73242 10.8643 1.95117 11.0728C2.16211 11.2886 2.41602 11.4536 2.69727 11.5576C2.92578 11.6465 3.27148 11.7529 3.9043 11.7812C4.58984 11.8115 4.79492 11.8193 6.5293 11.8193C8.26758 11.8193 8.47266 11.8115 9.15625 11.7812C9.79102 11.7529 10.1328 11.6465 10.3613 11.5576C10.6445 11.4536 10.9004 11.2886 11.1094 11.0728C11.3242 10.8618 11.4902 10.6079 11.5938 10.3257C11.6816 10.0972 11.7891 9.75195 11.8164 9.11963C11.8477 8.43408 11.8555 8.22803 11.8555 6.49365C11.8555 4.75928 11.8477 4.55615 11.8164 3.87012Z" fill="#FFFFFF" fill-opacity="1.000000" fill-rule="nonzero"></path>
      <path id="Vector" d="M6.52539 9.83838C4.68164 9.83838 3.18555 8.34277 3.18555 6.49902C3.18555 4.65527 4.68164 3.15918 6.52539 3.15918C8.36914 3.15918 9.86523 4.65527 9.86523 6.49902C9.86523 8.34277 8.36914 9.83838 6.52539 9.83838ZM6.52539 4.33252C5.32812 4.33252 4.35938 5.30273 4.35938 6.49902C4.35938 7.69482 5.32812 8.66504 6.52539 8.66504C7.7207 8.66504 8.69141 7.69482 8.69141 6.49902C8.69141 5.30273 7.7207 4.33252 6.52539 4.33252Z" fill="#FFFFFF" fill-opacity="1.000000" fill-rule="nonzero"></path>
      <path id="Vector" d="M10.7754 9.97021C10.7754 9.54004 10.4277 9.19092 9.99609 9.19092C9.56641 9.19092 9.2168 9.54004 9.2168 9.97021C9.2168 10.4009 9.56641 10.75 9.99609 10.75C10.4277 10.75 10.7754 10.4009 10.7754 9.97021Z" fill="#FFFFFF" fill-opacity="1.000000" fill-rule="nonzero"></path>
    </g>
  </symbol>
</svg>